# xmcd
#
# Track frame offsets: 
#        150
#        5833
#        21086
#        38324
#        52714
#
# Disc length: 925 seconds
#
# Revision: 0
# Processed by: cddbd v1.5.2PL0 Copyright (c) Steve Scherf et al.
# Submitted via: ExactAudioCopyFreeDBPlugin 1.0
#
DISCID=2a039b05
DTITLE=ELRIS - ELRIS - WE,first
DYEAR=2017
DGENRE=K-POP
TTITLE0=Searching for ELRIS (Intro)
TTITLE1=WE, First (우리 처음)
TTITLE2=My Star(나의 별)
TTITLE3=Miracle
TTITLE4=You and I (너와 나)
EXTD=
EXTT0=
EXTT1=
EXTT2=
EXTT3=
EXTT4=
PLAYORDER=
